<?xml version="1.0" standalone="no"?>
<!DOCTYPE svg PUBLIC "-//W3C//DTD SVG 20010904//EN"
 "http://www.w3.org/TR/2001/REC-SVG-20010904/DTD/svg10.dtd">
<svg version="1.0" xmlns="http://www.w3.org/2000/svg"
 width="512.000000pt" height="512.000000pt" viewBox="0 0 512.000000 512.000000"
 preserveAspectRatio="xMidYMid meet">

<g transform="translate(0.000000,512.000000) scale(0.100000,-0.100000)"
fill="#000000" stroke="none">
<path d="M2452 4940 c-58 -36 -62 -59 -62 -360 0 -301 4 -324 62 -360 60 -36
135 -20 174 37 18 26 19 50 19 323 0 273 -1 297 -19 323 -39 57 -114 73 -174
37z"/>
<path d="M1473 4795 c-72 -31 -93 -122 -45 -192 106 -157 331 -454 353 -467
15 -9 45 -16 68 -16 78 0 139 85 113 158 -6 16 -87 135 -181 265 -199 273
-220 291 -308 252z"/>
<path d="M3434 4796 c-36 -16 -44 -26 -243 -299 -134 -186 -151 -213 -151
-248 0 -80 49 -129 129 -129 31 0 48 7 70 28 51 47 358 478 364 511 19 92 -84
175 -169 137z"/>
<path d="M1015 3273 c-226 -201 -412 -370 -413 -375 -2 -4 212 -7 475 -6 l478
3 125 205 c69 113 171 280 228 373 l102 167 -293 0 -292 -1 -410 -366z"/>
<path d="M2045 3313 c-110 -180 -213 -348 -228 -375 l-29 -48 727 0 c688 0
727 1 720 18 -3 9 -104 178 -223 374 l-217 357 -275 1 -276 0 -199 -327z"/>
<path d="M3057 3592 c15 -27 118 -196 228 -375 l200 -327 515 0 c512 0 514 0
495 20 -11 10 -213 179 -450 374 l-430 355 -293 1 -294 0 29 -48z"/>
<path d="M537 2678 c6 -7 389 -528 853 -1158 463 -630 846 -1149 851 -1155 6
-5 5 3 0 20 -9 25 -682 2236 -697 2288 -5 16 -38 17 -511 17 -403 0 -503 -3
-496 -12z"/>
<path d="M1752 2673 c39 -146 765 -2500 769 -2495 3 4 176 565 384 1247 208
682 380 1246 382 1253 4 9 -153 12 -767 12 -731 0 -772 -1 -768 -17z"/>
<path d="M3495 2678 c-19 -56 -713 -2343 -712 -2345 2 -2 1034 1344 1695 2209
l113 148 -546 0 c-427 0 -547 -3 -550 -12z"/>
</g>
</svg>
