<svg width="40" height="40" viewBox="0 0 40 40" fill="none" xmlns="http://www.w3.org/2000/svg">
<path d="M32.4587 0.816667C32.2405 0.528651 31.9487 0.304794 31.614 0.168667C31.6 0.159333 31.586 0.144 31.568 0.133333C31.5349 0.123707 31.501 0.117015 31.4667 0.113333C31.2653 0.0419447 31.0536 0.00367066 30.84 0L9.16 0C8.94631 0.00371976 8.73465 0.042224 8.53334 0.114C8.49908 0.117621 8.46519 0.124088 8.432 0.133333C8.414 0.141333 8.40267 0.156667 8.386 0.166C8.05128 0.302398 7.75949 0.526476 7.54134 0.814667L0.400003 10.434C0.146281 10.7757 0.00548627 11.1881 -0.00275928 11.6136C-0.0110048 12.0392 0.113709 12.4567 0.354003 12.808L18.3333 39.1187C18.5179 39.3908 18.7663 39.6135 19.0569 39.7675C19.3474 39.9215 19.6712 40.002 20 40.002C20.3288 40.002 20.6526 39.9215 20.9431 39.7675C21.2337 39.6135 21.4821 39.3908 21.6667 39.1187L39.6433 12.808C39.8837 12.4568 40.0084 12.0394 40.0002 11.614C39.9919 11.1885 39.8511 10.7763 39.5973 10.4347L32.4587 0.816667ZM38.1093 10.6667H27.686L29.3193 6.93333C29.3576 6.85266 29.3792 6.76513 29.3829 6.67593C29.3867 6.58674 29.3725 6.4977 29.3412 6.4141C29.3099 6.3305 29.2621 6.25404 29.2007 6.18925C29.1393 6.12446 29.0655 6.07267 28.9837 6.03694C28.9018 6.00121 28.8137 5.98228 28.7244 5.98127C28.6352 5.98026 28.5466 5.99719 28.464 6.03105C28.3814 6.06491 28.3064 6.11501 28.2436 6.17839C28.1807 6.24177 28.1312 6.31713 28.098 6.4L26.5647 9.90933L21.2 1.33333H30.3153L29.2667 3.73333C29.1958 3.89529 29.1921 4.07878 29.2565 4.24343C29.3209 4.40809 29.4481 4.54042 29.61 4.61133C29.694 4.64846 29.7848 4.66754 29.8767 4.66733C30.0064 4.6674 30.1334 4.62958 30.242 4.55853C30.3506 4.48748 30.4361 4.38627 30.488 4.26733L31.5547 1.83267L38.1093 10.6667ZM20 36.4553L14.1773 12H25.8227L20 36.4553ZM13.4373 9.90867L9.68467 1.33333H18.8L13.4373 9.90867ZM20 1.92467L25.4667 10.6667H14.5333L20 1.92467ZM8.44734 1.83267L12.314 10.6667H1.89L8.44734 1.83267ZM1.45734 12.0553C1.44751 12.0374 1.43861 12.0189 1.43067 12H2.98334L9.67 21.7113C9.7182 21.7867 9.78109 21.8516 9.8549 21.9022C9.92872 21.9528 10.012 21.988 10.0997 22.0057C10.1874 22.0234 10.2777 22.0233 10.3654 22.0053C10.4531 21.9874 10.5362 21.952 10.6099 21.9012C10.6836 21.8504 10.7463 21.7854 10.7943 21.7098C10.8423 21.6343 10.8746 21.5499 10.8893 21.4617C10.904 21.3734 10.9008 21.2831 10.8798 21.1961C10.8589 21.1091 10.8206 21.0272 10.7673 20.9553L4.6 12H12.8067L18.8973 37.5787L1.45734 12.0553ZM21.1027 37.5787L27.1933 12H38.5693C38.5614 12.0189 38.5525 12.0374 38.5427 12.0553L21.1027 37.5787Z" fill="white"/>
<path d="M5.46665 9.2C5.6081 9.30609 5.7859 9.35164 5.96093 9.32664C6.13596 9.30163 6.2939 9.20812 6.39998 9.06667L8.37998 6.4C8.43251 6.32992 8.47072 6.25018 8.49243 6.16533C8.51414 6.08048 8.51893 5.99218 8.50652 5.90549C8.4941 5.81879 8.46474 5.73538 8.42009 5.66003C8.37545 5.58468 8.3164 5.51886 8.24632 5.46634C8.17623 5.41381 8.09649 5.3756 8.01164 5.35389C7.92679 5.33217 7.8385 5.32739 7.7518 5.3398C7.6651 5.35221 7.58169 5.38158 7.50634 5.42622C7.431 5.47087 7.36518 5.52992 7.31265 5.6L5.33332 8.26667C5.28079 8.33671 5.24257 8.41641 5.22084 8.50121C5.19911 8.58602 5.1943 8.67428 5.20668 8.76095C5.21906 8.84762 5.24839 8.931 5.293 9.00633C5.3376 9.08166 5.39661 9.14747 5.46665 9.2Z" fill="white"/>
<path d="M13.2166 24.5393L12.5913 23.624C12.4899 23.4822 12.337 23.3857 12.1653 23.3553C11.9936 23.3249 11.8169 23.3629 11.6729 23.4613C11.5289 23.5596 11.4292 23.7105 11.3952 23.8815C11.3611 24.0525 11.3954 24.23 11.4906 24.376L12.1166 25.292C12.2185 25.4327 12.3713 25.5281 12.5425 25.5578C12.7137 25.5875 12.8897 25.5493 13.0331 25.4512C13.1764 25.3531 13.2758 25.2029 13.3101 25.0326C13.3444 24.8623 13.3109 24.6853 13.2166 24.5393Z" fill="white"/>
</svg>
