<svg width="28" height="16" viewBox="0 0 28 16" fill="none" xmlns="http://www.w3.org/2000/svg">
<path d="M14 15.2722C13.8325 15.2732 13.6665 15.2411 13.5115 15.1778C13.3565 15.1145 13.2155 15.0212 13.0967 14.9033L0.374158 2.18075C0.134589 1.94118 -5.04855e-09 1.61626 0 1.27746C5.04855e-09 0.938653 0.134589 0.613727 0.374158 0.374158C0.613728 0.134588 0.938654 5.04855e-09 1.27746 0C1.61626 -5.04855e-09 1.94119 0.134588 2.18075 0.374158L14 12.2061L25.8192 0.374158C26.0587 0.134588 26.3837 0 26.7225 0C27.0613 0 27.3862 0.134588 27.6258 0.374158C27.8653 0.613727 27.9999 0.938653 27.9999 1.27746C27.9999 1.61626 27.8653 1.94118 27.6258 2.18075L14.9033 14.9033C14.7844 15.0212 14.6434 15.1145 14.4884 15.1778C14.3334 15.2411 14.1674 15.2732 14 15.2722Z" fill="white"/>
</svg>
